<svg width="158" height="50" viewBox="0 0 158 50" fill="none" xmlns="http://www.w3.org/2000/svg">
<g opacity="0.5">
<g opacity="0.5">
<path opacity="0.5" d="M52.8998 6.08228C52.8138 6.08228 52.7301 6.08464 52.6465 6.087C53.6645 6.12245 54.6275 6.32332 55.4926 6.67071C54.7088 6.29496 53.8294 6.08228 52.8998 6.08228Z" fill="#EA9400"/>
</g>
</g>
<g opacity="0.5">
<g opacity="0.5">
<path opacity="0.5" d="M57.4169 15.7229C57.1945 15.9663 56.9577 16.2003 56.709 16.42C56.9649 16.2097 57.2016 15.9758 57.4169 15.7229Z" fill="#EA9400"/>
</g>
</g>
<path d="M42.6074 19.6792C42.8131 19.0435 43.0451 18.4219 43.3058 17.8193C43.0212 18.4432 42.7772 19.0765 42.6074 19.6792Z" fill="#EA9400"/>
<path d="M45.8502 13.4004C45.8502 13.4004 45.8478 13.4053 45.8403 13.4153C45.8428 13.4103 45.8477 13.4053 45.8502 13.4004Z" fill="#EA9400"/>
<path d="M38.6286 0.71164C35.6224 2.89285 37.398 7.04023 37.398 7.04023C16.565 -9.76433 2.17219 7.21511 6.10794 20.1062C6.20591 20.4324 6.28955 20.7372 6.3469 21.0232C6.44249 21.3658 6.49506 21.7274 6.49506 22.1008C6.49506 24.3174 4.67654 26.1158 2.43505 26.1158C1.5222 26.1158 0.678659 25.8181 0 25.3147C0.798142 29.533 6.86306 30.4097 8.82257 26.95C10.3902 29.8236 12.8754 30.4097 12.8754 30.4097C14.4908 28.4341 13.5063 24.7948 13.5063 24.7948C17.7957 25.8842 22.1138 22.0464 19.1148 15.8336C19.1148 15.8336 19.0789 20.9286 13.5732 20.3213C4.97046 19.376 7.66837 3.61599 20.6776 3.61599C29.8753 3.61599 35.2377 9.85478 38.815 13.3948C38.815 13.3948 39.8521 11.8351 41.2883 10.6086C41.2094 10.4739 41.1354 10.3416 41.0685 10.2093C41.0637 10.1974 41.0565 10.188 41.0517 10.1785C38.5999 5.42146 41.8427 1.78925 46.3257 3.82867C44.4044 0.113756 40.7602 -0.836242 38.6286 0.71164Z" fill="#EA9400"/>
<path d="M8.94922 41.7075C9.47733 42.3857 10.1703 42.8938 10.9756 43.227C10.1918 42.8749 9.49884 42.3527 8.94922 41.7075Z" fill="#EA9400"/>
<g opacity="0.5">
<g opacity="0.5">
<path opacity="0.5" d="M10.9756 43.2273C11.7044 43.5534 12.5121 43.7377 13.3628 43.7377C13.6353 43.7377 13.9029 43.7188 14.1658 43.6834C12.9996 43.7685 11.9099 43.6149 10.9756 43.2273Z" fill="#EA9400"/>
</g>
</g>
<path d="M17.6309 38.6528C17.6352 38.6484 17.6418 38.644 17.6484 38.6375C17.6418 38.644 17.6374 38.6484 17.6309 38.6528Z" fill="#EA9400"/>
<path d="M17.2866 38.9449C17.2917 38.9424 17.2967 38.9373 17.2992 38.9348C17.2967 38.9373 17.2917 38.9399 17.2866 38.9449Z" fill="#EA9400"/>
<path d="M17.1646 39.0401C17.174 39.033 17.1811 39.0259 17.1906 39.0188C17.1811 39.0259 17.1716 39.033 17.1646 39.0401Z" fill="#EA9400"/>
<path d="M18.2139 38.1085C18.235 38.0874 18.2561 38.0663 18.2749 38.0452C18.2538 38.0663 18.235 38.0874 18.2139 38.1085Z" fill="#EA9400"/>
<path d="M17.8457 38.4638C17.8627 38.4468 17.8821 38.4298 17.8991 38.4128C17.8821 38.4298 17.8651 38.4468 17.8457 38.4638Z" fill="#EA9400"/>
<path d="M18.3379 37.9815C18.3591 37.9603 18.3803 37.9367 18.4015 37.9155C18.3803 37.9391 18.3591 37.9603 18.3379 37.9815Z" fill="#EA9400"/>
<path d="M17.9673 38.3476C17.9862 38.3286 18.0051 38.3097 18.0241 38.2908C18.0051 38.3121 17.9862 38.331 17.9673 38.3476Z" fill="#EA9400"/>
<path d="M16.4463 39.5372C16.4512 39.5347 16.4562 39.5323 16.4612 39.5298C16.4562 39.5323 16.4512 39.5347 16.4463 39.5372Z" fill="#EA9400"/>
<path d="M16.5601 39.4636C16.5666 39.4592 16.5732 39.4548 16.5798 39.4504C16.5732 39.4548 16.5666 39.4592 16.5601 39.4636Z" fill="#EA9400"/>
<path d="M16.7988 39.3058C16.8081 39.2989 16.8173 39.292 16.8266 39.2874C16.8173 39.292 16.8081 39.2989 16.7988 39.3058Z" fill="#EA9400"/>
<path d="M16.6792 39.3877C16.6863 39.3829 16.6958 39.3758 16.7052 39.3711C16.6958 39.3758 16.6863 39.3806 16.6792 39.3877Z" fill="#EA9400"/>
<path d="M16.9185 39.2195C16.9277 39.2126 16.937 39.2057 16.9462 39.1987C16.9393 39.2057 16.93 39.2126 16.9185 39.2195Z" fill="#EA9400"/>
<path d="M17.0405 39.1309C17.0498 39.124 17.059 39.117 17.0683 39.1101C17.0613 39.117 17.0521 39.124 17.0405 39.1309Z" fill="#EA9400"/>
<path d="M17.7285 38.5666C17.7447 38.5527 17.7585 38.5412 17.7723 38.5273C17.7585 38.5412 17.7447 38.5527 17.7285 38.5666Z" fill="#EA9400"/>
<path d="M18.1504 38.1687C18.1316 38.1875 18.1105 38.2086 18.0894 38.2274C18.1105 38.2086 18.1293 38.1898 18.1504 38.1687Z" fill="#EA9400"/>
<path d="M18.7061 37.5842C18.73 37.5579 18.7539 37.5292 18.7778 37.5005C18.7539 37.5268 18.73 37.5555 18.7061 37.5842Z" fill="#EA9400"/>
<path d="M18.584 37.7173C18.6074 37.6915 18.6285 37.6681 18.6519 37.6423C18.6285 37.6681 18.6074 37.6939 18.584 37.7173Z" fill="#EA9400"/>
<path d="M18.8301 37.4433C18.8566 37.4123 18.8856 37.3813 18.9121 37.3479C18.8832 37.3813 18.8566 37.4123 18.8301 37.4433Z" fill="#EA9400"/>
<path d="M18.46 37.8501C18.481 37.8266 18.5021 37.8032 18.5255 37.7798C18.5045 37.8055 18.4834 37.829 18.46 37.8501Z" fill="#EA9400"/>
<path d="M18.9521 37.3019C18.9932 37.2518 19.0342 37.2041 19.0752 37.1541C19.0342 37.2041 18.9932 37.2518 18.9521 37.3019Z" fill="#EA9400"/>
<path d="M16.7036 39.3708C16.735 39.3491 16.7664 39.3274 16.7977 39.3057C16.7688 39.3274 16.7374 39.3491 16.7036 39.3708Z" fill="#EA9400"/>
<path d="M16.9492 39.2001C16.9806 39.1784 17.012 39.1543 17.0433 39.1301C17.012 39.1543 16.9806 39.1784 16.9492 39.2001Z" fill="#EA9400"/>
<path d="M18.2124 38.1094C18.1913 38.1305 18.1725 38.1516 18.1514 38.1704C18.1701 38.1493 18.1913 38.1282 18.2124 38.1094Z" fill="#EA9400"/>
<path d="M16.8276 39.2878C16.859 39.2661 16.8904 39.2443 16.9217 39.2202C16.888 39.2443 16.8566 39.2661 16.8276 39.2878Z" fill="#EA9400"/>
<path d="M16.3364 39.6027C16.3722 39.5813 16.4081 39.5574 16.4463 39.5359C16.4104 39.5574 16.3746 39.5813 16.3364 39.6027Z" fill="#EA9400"/>
<path d="M18.4023 37.9147C18.4211 37.8935 18.4422 37.8724 18.461 37.8513C18.4399 37.8724 18.4211 37.8935 18.4023 37.9147Z" fill="#EA9400"/>
<path d="M15.2983 40.0946C15.6355 39.9764 15.9823 39.811 16.3363 39.603C15.9823 39.811 15.6355 39.9764 15.2983 40.0946Z" fill="#EA9400"/>
<path d="M16.4604 39.5303C16.4939 39.5088 16.5273 39.4873 16.5631 39.4658C16.5273 39.4873 16.4939 39.5088 16.4604 39.5303Z" fill="#EA9400"/>
<path d="M16.5815 39.4524C16.6126 39.4309 16.646 39.4094 16.6794 39.3879C16.646 39.4094 16.6126 39.4309 16.5815 39.4524Z" fill="#EA9400"/>
<path d="M17.9009 38.4108C17.9221 38.3896 17.9457 38.3684 17.9669 38.3472C17.9457 38.3684 17.9221 38.3896 17.9009 38.4108Z" fill="#EA9400"/>
<path d="M18.6533 37.6438C18.6721 37.6227 18.6885 37.6039 18.7073 37.5828C18.6885 37.6039 18.6697 37.625 18.6533 37.6438Z" fill="#EA9400"/>
<path d="M18.0249 38.2939C18.046 38.2728 18.0671 38.2517 18.0883 38.2329C18.0671 38.2517 18.046 38.2728 18.0249 38.2939Z" fill="#EA9400"/>
<path d="M18.5269 37.7795C18.5456 37.7584 18.5644 37.7396 18.5832 37.7185C18.5644 37.7396 18.5456 37.7607 18.5269 37.7795Z" fill="#EA9400"/>
<path d="M18.2759 38.0446C18.297 38.0234 18.3158 38.0023 18.3369 37.9812C18.3158 38.0023 18.297 38.0234 18.2759 38.0446Z" fill="#EA9400"/>
<path d="M17.7739 38.5272C17.7973 38.5062 17.8208 38.4851 17.8442 38.4617C17.8208 38.4827 17.7973 38.5062 17.7739 38.5272Z" fill="#EA9400"/>
<path d="M17.6499 38.6378C17.6753 38.6148 17.7007 38.5917 17.7261 38.5686C17.7007 38.5917 17.6753 38.6148 17.6499 38.6378Z" fill="#EA9400"/>
<path d="M17.0713 39.111C17.1027 39.0868 17.134 39.0627 17.1654 39.0386C17.134 39.0651 17.1027 39.0868 17.0713 39.111Z" fill="#EA9400"/>
<path d="M17.1909 39.0188C17.222 38.9925 17.2554 38.9686 17.2888 38.9424C17.2554 38.9686 17.222 38.9925 17.1909 39.0188Z" fill="#EA9400"/>
<path d="M18.9092 37.3495C18.9232 37.3332 18.9371 37.3168 18.9511 37.3005C18.9371 37.3168 18.9232 37.3332 18.9092 37.3495Z" fill="#EA9400"/>
<path d="M17.2983 38.9305C17.4084 38.8431 17.5208 38.7509 17.6308 38.6541C17.5208 38.7509 17.4107 38.8431 17.2983 38.9305Z" fill="#EA9400"/>
<path d="M18.7803 37.5011C18.7967 37.4823 18.8131 37.4635 18.8296 37.4424C18.8131 37.4635 18.7967 37.4823 18.7803 37.5011Z" fill="#EA9400"/>
<path d="M16.0273 31.6358C16.109 31.631 16.1882 31.6261 16.2699 31.6213C16.1882 31.6261 16.109 31.631 16.0273 31.6358Z" fill="#EA9400"/>
<path d="M16.0107 31.6374C16.0157 31.6374 16.0207 31.6374 16.0282 31.6374C16.0232 31.6349 16.0157 31.6349 16.0107 31.6374Z" fill="#EA9400"/>
<path d="M56.6799 23.1377C55.1122 20.264 52.627 19.678 52.627 19.678C51.0116 21.6536 51.9962 25.2929 51.9962 25.2929C47.7091 24.2011 43.3886 28.0413 46.3877 34.2541C46.3877 34.2541 46.4211 29.159 51.9292 29.764C60.5344 30.7093 57.8341 46.4693 44.8248 46.4693C35.7179 46.4693 30.236 39.947 26.654 36.3809C25.8941 37.6901 24.9764 38.8599 24.2882 39.6634C26.9025 43.9218 23.0647 48.029 19.1768 46.2614C21.0885 49.4942 24.3408 50.8861 26.4891 49.3595C30.1691 46.7435 28.1045 43.0522 28.1045 43.0522C48.9398 59.8544 64.5203 42.4685 59.3945 29.9838C59.2655 29.6695 59.2129 29.3528 59.1555 29.0669C59.0599 28.7242 59.0074 28.3627 59.0074 27.9893C59.0074 25.7703 60.8259 23.9742 63.0674 23.9742C63.9802 23.9742 64.8238 24.272 65.5024 24.7754C64.7043 20.5571 58.6394 19.678 56.6799 23.1377Z" fill="#EA9400"/>
<path d="M19.9536 35.9704C20.0493 35.8286 20.1425 35.6845 20.2382 35.5379C20.231 35.5332 20.2262 35.5308 20.2191 35.5261C20.0588 35.7979 19.956 35.968 19.9536 35.9704Z" fill="#EA9400"/>
<path d="M55.4923 6.67287C54.6273 6.32548 53.6642 6.12461 52.6463 6.08916C50.1515 6.00409 47.315 6.91627 44.7174 9.12821C44.2204 9.55122 43.7329 10.0215 43.2573 10.5414C43.2024 10.6005 43.145 10.6595 43.0877 10.7186C42.8845 10.9408 41.2907 12.6966 39.9501 14.4903C39.9524 14.4926 39.9525 14.4926 39.9548 14.495C37.4003 17.9665 35.1779 21.9484 33.283 25.7295C33.283 25.7295 31.5122 20.5164 28.7928 17.6853C25.3565 14.1051 25.5142 8.17585 31.4381 10.6123C31.4381 10.6123 27.9851 5.06354 23.1795 9.97895C23.1795 9.97895 14.4048 6.90682 13.1932 15.8774C21.6478 7.4149 26.0495 19.7152 22.4411 30.7749C22.2022 31.5122 21.9345 32.2094 21.6454 32.8687C21.2152 33.8494 20.7397 34.7403 20.2331 35.5391C20.1399 35.6856 20.0443 35.8298 19.9487 35.9715L19.8794 36.0732C19.6142 36.4584 19.3441 36.8199 19.0693 37.1555C19.0287 37.2051 18.9881 37.2547 18.9475 37.302C18.9331 37.3186 18.9188 37.3351 18.9045 37.3516C18.8782 37.3824 18.8519 37.4154 18.8232 37.4462C18.8065 37.4651 18.7898 37.484 18.773 37.5052C18.7491 37.5336 18.7252 37.5596 18.7013 37.588C18.6822 37.6092 18.6655 37.6281 18.6464 37.6494C18.6225 37.6754 18.601 37.699 18.5771 37.725C18.558 37.7463 18.5388 37.7652 18.5197 37.7865C18.4982 37.8101 18.4767 37.8337 18.4528 37.8574C18.4337 37.8786 18.4146 37.8999 18.3931 37.9212C18.3716 37.9424 18.3501 37.9661 18.3286 37.9873C18.3094 38.0086 18.2879 38.0299 18.2664 38.0511C18.2449 38.0724 18.2258 38.0937 18.2043 38.1149C18.1828 38.1362 18.1637 38.1575 18.1422 38.1764C18.123 38.1953 18.1015 38.2166 18.08 38.2355C18.0585 38.2567 18.037 38.278 18.0155 38.2969C17.9964 38.3158 17.9773 38.3347 17.9582 38.3536C17.9366 38.3749 17.9128 38.3962 17.8912 38.4174C17.8745 38.434 17.8554 38.4505 17.8387 38.4671C17.8148 38.4883 17.7909 38.512 17.767 38.5332C17.7526 38.5474 17.7359 38.5616 17.7216 38.5734C17.6953 38.597 17.669 38.6207 17.6427 38.6443C17.6356 38.649 17.6308 38.6538 17.6236 38.6608C17.5137 38.7577 17.4014 38.8499 17.2914 38.9373C17.2867 38.9397 17.2843 38.9444 17.2795 38.9468C17.246 38.9728 17.215 38.9988 17.1815 39.0224C17.172 39.0295 17.1648 39.0366 17.1552 39.0437C17.1242 39.0673 17.0931 39.0909 17.062 39.1146C17.0525 39.1217 17.0429 39.1288 17.0334 39.1358C17.0023 39.1595 16.9712 39.1807 16.9402 39.2044C16.9306 39.2115 16.921 39.2185 16.9115 39.2256C16.8804 39.2469 16.8494 39.2705 16.8183 39.2918C16.8087 39.2989 16.7992 39.306 16.7896 39.3107C16.7586 39.332 16.7275 39.3532 16.6964 39.3745C16.6869 39.3792 16.6797 39.3863 16.6701 39.3911C16.6391 39.4123 16.6056 39.4336 16.5722 39.4549C16.565 39.4596 16.5578 39.4643 16.5507 39.469C16.5172 39.4903 16.4837 39.5116 16.4479 39.5329C16.4431 39.5352 16.4383 39.5376 16.4336 39.5399C16.3977 39.5612 16.3619 39.5848 16.3236 39.6061C15.97 39.8141 15.6235 39.9795 15.2841 40.0976C14.9161 40.2749 14.5027 40.3741 14.0654 40.3741C12.5289 40.3741 11.2839 39.1429 11.2839 37.6234C11.2839 36.6876 11.757 35.8628 12.4763 35.3666C12.5408 35.3217 12.6077 35.2791 12.677 35.239C13.3414 34.8207 16.0918 33.9487 18.926 34.9436C19.6644 33.847 20.0467 32.9207 20.2331 32.3464C18.3333 31.7651 14.768 31.1128 11.1214 32.7553C9.03761 33.6178 7.57275 35.6525 7.57275 38.0275C7.57275 39.4312 8.08414 40.7168 8.93246 41.7093C9.48208 42.3545 10.1751 42.8767 10.9589 43.2289C11.8932 43.6164 12.9805 43.77 14.1491 43.6826C17.0788 43.4652 20.5103 41.7306 23.2536 38.3536C24.004 37.432 24.7017 36.3875 25.323 35.2177C26.9982 32.0699 28.1285 28.0147 28.2384 23.0048C28.2384 23.0048 32.3151 27.9037 33.5506 34.764C33.5506 34.764 36.031 26.8544 38.3777 23.1111C38.1124 26.6417 38.4279 30.5717 39.7326 34.2039C39.8497 34.7616 39.9548 35.1846 40.0433 35.3926C41.489 38.8263 40.103 42.527 35.7586 41.8062C35.7586 41.8062 41.4197 45.3864 43.5967 40.2371C43.5967 40.2371 48.6555 42.2529 51.3057 39.1004C53.9558 35.9479 53.0119 32.682 51.3415 31.4862C51.3415 31.4862 52.6486 35.8841 48.603 37.2642C45.8023 38.2166 40.5642 35.1255 41.7256 23.7374C41.8666 22.3549 42.1677 20.989 42.5882 19.6822C42.7579 19.0795 43.0016 18.4462 43.286 17.8223C43.3935 17.5837 43.5082 17.345 43.6253 17.1087C44.2371 15.8822 44.9301 14.7644 45.3746 14.0814C45.6159 13.7128 45.7832 13.4717 45.8238 13.415C45.831 13.4056 45.8334 13.4008 45.8334 13.4008C46.1966 12.914 46.5742 12.4485 46.9637 12.0136C48.6388 10.2294 50.1228 9.09985 51.4347 8.83517C51.6689 8.78082 51.9102 8.7501 52.1612 8.7501C53.9008 8.7501 55.3107 10.1444 55.3107 11.8648C55.3107 12.4036 55.1721 12.9093 54.9284 13.3512C54.2927 14.6084 52.5387 15.5537 49.4155 15.2677C49.4155 15.2677 48.7583 15.1921 47.7977 14.9416C47.4631 14.8542 47.0879 14.7431 46.6936 14.6084C46.015 15.4001 45.3937 16.6289 44.9229 17.7136C45.0448 17.7633 45.1691 17.8129 45.2933 17.8625C45.874 18.1106 47.0497 18.5431 48.5432 18.744C50.2686 18.9756 52.4168 18.8952 54.558 17.8554C55.3155 17.4868 56.0443 16.9976 56.6919 16.4233C56.9404 16.2036 57.177 15.9696 57.3993 15.7262C58.2739 14.7053 58.802 13.3843 58.802 11.9428C58.8211 9.62448 57.4638 7.62286 55.4923 6.67287Z" fill="#EA9400"/>
<path d="M19.8843 36.0714L19.9535 35.97C19.932 36.003 19.9082 36.036 19.8843 36.0714Z" fill="#EA9400"/>
<rect x="71.9263" y="28.4458" width="86.0556" height="12.933" fill="#32386B"/>
<path d="M96.7105 33.0028L97.2912 31.7802C96.5707 31.3164 95.5705 31.0002 94.5703 31.0002C92.8817 31.0002 91.7525 31.8223 91.7525 33.1082C91.7525 35.7326 95.7963 34.8578 95.7963 36.3966C95.7963 36.9131 95.3123 37.2082 94.5057 37.2082C93.6991 37.2082 92.6774 36.7971 91.9031 36.1226L91.3008 37.3136C92.1074 38.0198 93.2797 38.494 94.4842 38.494C96.1405 38.494 97.3665 37.693 97.3665 36.3123C97.3773 33.6668 93.3335 34.4784 93.3335 32.9817C93.3335 32.5285 93.7744 32.2861 94.452 32.2861C95.0327 32.2861 95.9039 32.5285 96.7105 33.0028Z" fill="white"/>
<path d="M104.109 31.0635V38.4413H105.55V35.448H109.304V38.4413H110.745V31.0635H109.304V34.2149H105.55V31.0635H104.109Z" fill="white"/>
<path d="M121.403 31.0213C119.134 31.0213 117.392 32.6234 117.392 34.7524C117.392 36.8709 119.134 38.5046 121.403 38.5046C123.673 38.5046 125.415 36.8709 125.415 34.7524C125.415 32.6339 123.673 31.0213 121.403 31.0213ZM121.425 32.2861C122.801 32.2861 123.941 33.3612 123.941 34.7524C123.941 36.1437 122.801 37.2398 121.425 37.2398C120.037 37.2398 118.865 36.1437 118.865 34.7524C118.865 33.3612 120.027 32.2861 121.425 32.2861Z" fill="white"/>
<path d="M135.144 31.0635H132.057V38.4413H133.498V36.2701H135.144C137.037 36.2701 138.123 35.2899 138.123 33.6036C138.123 31.9804 137.037 31.0635 135.144 31.0635ZM135.068 35.0265H133.498V32.2966H135.068C136.144 32.2966 136.757 32.7393 136.757 33.6457C136.757 34.5732 136.144 35.0265 135.068 35.0265Z" fill="white"/>
<path d="M86.387 24.7465L86.3407 16.3676L82.2293 23.1878H80.2183L76.1315 16.5933V24.7465H71.9521V8.93726H75.675L81.2916 18.0604L86.7725 8.93726H90.4954L90.5416 24.7465H86.387Z" fill="#32386B"/>
<path d="M106.574 21.2906V24.7465H93.7402V8.93726H106.278V12.3931H98.2187V15.059H105.322V18.4021H98.2187V21.2937H106.574V21.2906Z" fill="#32386B"/>
<path d="M116.074 20.5464H113.61V24.7465H109.088V8.93726H116.395C120.756 8.93726 123.498 11.1731 123.498 14.7876C123.498 17.1149 122.357 18.8291 120.371 19.7777L123.819 24.7465H118.976L116.074 20.5464ZM116.12 12.4633H113.61V17.0935H116.12C117.992 17.0935 118.93 16.2364 118.93 14.7906C118.93 13.3204 117.992 12.4633 116.12 12.4633Z" fill="#32386B"/>
<path d="M125.164 16.8431C125.164 12.1 128.933 8.6228 134.047 8.6228C139.16 8.6228 142.93 12.1 142.93 16.8431C142.93 21.5862 139.164 25.0634 134.047 25.0634C128.933 25.0634 125.164 21.5862 125.164 16.8431ZM138.365 16.8431C138.365 14.1101 136.471 12.3257 134.05 12.3257C131.628 12.3257 129.735 14.1101 129.735 16.8431C129.735 19.5761 131.632 21.3605 134.05 21.3605C136.468 21.3605 138.365 19.5761 138.365 16.8431Z" fill="#32386B"/>
<path d="M144.188 23.3248L145.672 20.0275C147.087 20.9548 149.098 21.5862 150.946 21.5862C152.818 21.5862 153.549 21.0677 153.549 20.299C153.549 17.7917 144.463 19.6219 144.463 13.7502C144.463 10.9257 146.791 8.6228 151.541 8.6228C153.62 8.6228 155.767 9.09558 157.34 10.0015L155.946 13.3201C154.416 12.5088 152.908 12.1 151.516 12.1C149.62 12.1 148.935 12.7314 148.935 13.5214C148.935 15.9372 158 14.1315 158 19.9574C158 22.7117 155.671 25.0604 150.921 25.0604C148.299 25.0634 145.696 24.3619 144.188 23.3248Z" fill="#32386B"/>
</svg>
