<svg xmlns="http://www.w3.org/2000/svg" width="100" height="100" viewBox="0 0 100 100" fill="none">
  <path d="M41.0928 39.9854H58.914V95.3786H41.0928V39.9854Z" fill="#F5921C"/>
  <path d="M87.0443 22.5288H80.8348C81.1861 19.1437 81.25 14.8024 80.1462 10.8052C79.0607 6.87134 76.6319 4.15229 73.2987 3.14627C72.8844 3.02342 63.0487 0.270612 54.0648 11.9151C53.4424 12.7217 53.5918 13.8799 54.3984 14.5021C55.2051 15.1246 56.3633 14.975 56.9854 14.1684C64.305 4.68149 71.8387 6.57105 72.2561 6.68485C75.0355 7.53243 76.1643 10.2439 76.5901 11.7869C77.4771 14.9988 77.6105 19.2523 76.966 23.7636C76.6578 25.9182 75.6339 29.6859 72.2497 30.7076C72.1726 30.7299 64.442 32.8862 56.9854 23.222C56.945 23.1696 56.9022 23.12 56.8574 23.0731L62.2406 25.3585C62.4757 25.4583 62.7201 25.5057 62.9605 25.5057C63.6786 25.5057 64.3611 25.0839 64.6593 24.3815C65.0574 23.4437 64.6198 22.3608 63.6823 21.9627L57.8332 19.4794L63.6823 16.9961C64.6198 16.598 65.0574 15.5151 64.6593 14.5773C64.2613 13.6397 63.1791 13.2024 62.2406 13.6003L55.0842 16.6386C54.1467 17.0367 53.7091 18.1196 54.1072 19.0574C54.173 19.2123 54.2575 19.3534 54.3568 19.4796C54.2573 19.6056 54.1728 19.7467 54.1072 19.9014C53.7091 20.8392 54.1467 21.9221 55.0842 22.3202L55.5172 22.5039C55.1259 22.5054 54.7319 22.6306 54.3984 22.8883C53.5918 23.5105 53.4424 24.6689 54.0648 25.4753C55.709 27.6065 57.3818 29.2553 59.0202 30.5264V38.1405H40.9795V30.5268C42.6178 29.2557 44.2908 27.6069 45.9351 25.4757C46.5574 24.6692 46.408 23.5108 45.6014 22.8887C45.2675 22.631 44.8735 22.5058 44.4821 22.5043L44.915 22.3204C45.8526 21.9221 46.2902 20.8394 45.8919 19.9016C45.8262 19.7467 45.7418 19.6058 45.6423 19.4796C45.7418 19.3534 45.8262 19.2123 45.8919 19.0576C46.2902 18.1198 45.8526 17.037 44.915 16.6388L37.7589 13.6004C36.821 13.2028 35.7384 13.6397 35.3401 14.5775C34.9419 15.5153 35.3794 16.5982 36.317 16.9963L42.1661 19.4796L36.317 21.9629C35.3793 22.361 34.9419 23.4439 35.3401 24.3817C35.6384 25.0843 36.3209 25.5059 37.0388 25.5059C37.2791 25.5059 37.5235 25.4585 37.7589 25.3587L43.1422 23.0731C43.0974 23.12 43.0546 23.1696 43.014 23.2222C35.6949 32.7083 28.1608 30.8195 27.7434 30.7057C24.3623 29.6748 23.3411 25.915 23.0335 23.7639C22.3888 19.252 22.5224 14.9984 23.4094 11.7865C23.836 10.241 24.9682 7.52265 27.75 6.68283C27.8271 6.66032 35.5578 4.50423 43.014 14.1684C43.6362 14.9748 44.7946 15.1248 45.6012 14.5021C46.4078 13.8799 46.5572 12.7215 45.9349 11.9151C36.9508 0.270059 27.1153 3.02305 26.6927 3.14885C23.3683 4.15229 20.9394 6.87152 19.8537 10.805C18.7499 14.8018 18.8135 19.1433 19.1651 22.529H12.9554C11.9366 22.529 11.1108 23.355 11.1108 24.3735V39.9856C11.1108 41.0042 11.9366 41.8302 12.9554 41.8302H15.2845V95.3788C15.2845 96.3974 16.1103 97.2234 17.1291 97.2234H82.8704C83.8892 97.2234 84.715 96.3974 84.715 95.3788V41.83H87.0441C88.0626 41.83 88.8886 41.004 88.8886 39.9855V24.3734C88.8888 23.3548 88.0628 22.5288 87.0443 22.5288ZM14.7999 26.2179H19.7662C20.8335 30.3366 23.293 33.2156 26.701 34.2445C26.8381 34.2852 28.0053 34.6134 29.8319 34.6134C31.7401 34.6134 34.3675 34.255 37.2904 32.8358V38.1409H14.7999V26.2179ZM81.026 93.5339H18.9738V41.83H81.026V93.5339ZM85.1997 38.1409H62.7093V32.8356C65.631 34.2541 68.2579 34.6126 70.1671 34.6126C71.9962 34.6126 73.1675 34.2834 73.3071 34.2419C76.7076 33.2154 79.1662 30.3368 80.2334 26.2179H85.1997V38.1409Z" fill="white"/>
  <path d="M51.9464 26.7309H47.9734C44.6617 26.7309 41.9517 24.0251 41.9517 20.718V16.9592C41.9517 13.6519 44.6617 10.9463 47.9734 10.9463H51.9464C55.2581 10.9463 57.9674 13.6521 57.9674 16.9592V20.718C57.9674 24.0251 55.2581 26.7309 51.9464 26.7309Z" fill="#F5921C"/>
</svg>