<svg xmlns="http://www.w3.org/2000/svg" width="100" height="100" viewBox="0 0 100 100" fill="none">
  <path d="M50 78.125C38.8 78.125 29.6875 69.0125 29.6875 57.8125C29.6875 46.6125 38.8 37.5 50 37.5C61.2 37.5 70.3125 46.6125 70.3125 57.8125C70.3125 69.0125 61.2 78.125 50 78.125Z" fill="#F5921C"/>
  <path d="M42.7142 70.7344L39.486 68.3297L42.9954 60.2547L35.397 55.2578L36.8704 51.5703L45.5376 51.5562L47.6892 43.75H51.947L54.1313 51.5625L62.7642 51.5641L64.2454 55.2547L56.6454 60.2531L60.1548 68.3281L56.9251 70.7328L49.8204 64.8922L42.7142 70.7344ZM49.8204 60.8484L55.5392 65.55L52.7298 59.0875L59.4188 54.6891L51.7595 54.6875L49.8235 47.7641L47.9173 54.675L40.2188 54.6875L46.9063 59.0875L44.1001 65.5484L49.8204 60.8484Z" fill="white"/>
  <path d="M32.8125 39.0625H29.6875V35.9375H32.8125V39.0625ZM32.8125 32.8125H29.6875V29.6875H32.8125V32.8125ZM32.8125 26.5625H29.6875V23.4375H32.8125V26.5625Z" fill="white"/>
  <path d="M70.3125 85.9375H67.1875V82.8125H70.3125V85.9375ZM70.3125 79.6875H67.1875V76.5625H70.3125V79.6875ZM70.3125 73.4375H67.1875V70.3125H70.3125V73.4375Z" fill="white"/>
  <path d="M98.4375 18.75C98.4375 11.7406 87.4563 6.25 73.4375 6.25C70.6609 6.25 67.9547 6.47813 65.3656 6.90625L60.0219 1.5625H39.9781L23.4375 18.1031V98.4375H76.5625V31.1469C89.05 30.3984 98.4375 25.2281 98.4375 18.75ZM41.2719 4.6875H58.7281L71.2281 17.1875H57.6547C56.9281 13.6266 53.7719 10.9375 50 10.9375C46.2281 10.9375 43.0719 13.6266 42.3453 17.1875H28.7719L41.2719 4.6875ZM51.5625 18.75C51.5625 17.4062 52.3266 16.2344 53.1922 15.3375C54.1078 16.1938 54.6875 17.4016 54.6875 18.75C54.6875 20.0844 54.1203 21.2828 53.2234 22.1375C52.1469 21.0344 51.5625 19.8766 51.5625 18.75ZM50.1984 23.4172C50.1312 23.4203 50.0672 23.4375 50 23.4375C47.4156 23.4375 45.3125 21.3344 45.3125 18.75C45.3125 16.1656 47.4156 14.0625 50 14.0625C50.0578 14.0625 50.1109 14.0781 50.1688 14.0797C49.0375 15.5406 48.4375 17.1219 48.4375 18.75C48.4375 20.4094 49.0719 21.9813 50.1984 23.4172ZM57.6547 20.3125H73.4375V28.125C65.7953 28.125 59.5469 26.3828 55.7078 24.0453C56.6656 23.0156 57.3641 21.7406 57.6547 20.3125ZM73.4375 89.0625H32.8125V92.1875H73.4375V95.3125H26.5625V92.1875H29.6875V89.0625H26.5625V20.3125H42.3453C43.0719 23.8734 46.2266 26.5625 50 26.5625C51.0406 26.5625 52.0297 26.35 52.9391 25.9781C57.4203 29.1844 64.8531 31.25 73.4375 31.25V89.0625ZM76.5625 28.0141V18.1031L68.1359 9.67656C69.8625 9.48437 71.6312 9.375 73.4375 9.375C86.3281 9.375 95.3125 14.3156 95.3125 18.75C95.3125 22.8156 87.7516 27.2938 76.5625 28.0141Z" fill="white"/>
</svg>