<svg xmlns="http://www.w3.org/2000/svg" width="100" height="100" viewBox="0 0 100 100" fill="none">
  <path d="M40.6249 77.2097L21.228 57.8128L51.5624 27.4785L70.9592 46.8754L40.6249 77.2097Z" fill="#F5921C"/>
  <path d="M87.5 76.5635C84.9156 76.5635 82.8125 78.6666 82.8125 81.251C82.8125 83.8354 84.9156 85.9385 87.5 85.9385C90.0844 85.9385 92.1875 83.8354 92.1875 81.251C92.1875 78.6666 90.0844 76.5635 87.5 76.5635ZM87.5 82.8135C86.6391 82.8135 85.9375 82.1119 85.9375 81.251C85.9375 80.39 86.6391 79.6885 87.5 79.6885C88.3609 79.6885 89.0625 80.39 89.0625 81.251C89.0625 82.1119 88.3609 82.8135 87.5 82.8135Z" fill="white"/>
  <path d="M68.75 70.3135C66.1656 70.3135 64.0625 72.4166 64.0625 75.001C64.0625 77.5854 66.1656 79.6885 68.75 79.6885C71.3344 79.6885 73.4375 77.5854 73.4375 75.001C73.4375 72.4166 71.3344 70.3135 68.75 70.3135ZM68.75 76.5635C67.8891 76.5635 67.1875 75.8619 67.1875 75.001C67.1875 74.14 67.8891 73.4385 68.75 73.4385C69.6109 73.4385 70.3125 74.14 70.3125 75.001C70.3125 75.8619 69.6109 76.5635 68.75 76.5635Z" fill="white"/>
  <path d="M73.542 88.6045L79.7982 66.719L82.8044 67.5784L76.5482 89.4639L73.542 88.6045Z" fill="white"/>
  <path d="M69.1473 56.6478C69.5378 57.0383 70.171 57.0383 70.5615 56.6478L79.627 47.5823C80.0175 47.1918 80.0175 46.5586 79.627 46.1681L70.5615 37.1026C70.171 36.7121 69.5378 36.7121 69.1473 37.1026L68.3521 37.8978C67.9616 38.2883 67.9616 38.9215 68.3521 39.312L75.2082 46.1681C75.5988 46.5586 75.5988 47.1918 75.2082 47.5823L68.3521 54.4384C67.9616 54.8289 67.9616 55.4621 68.3521 55.8526L69.1473 56.6478Z" fill="white"/>
  <path d="M50.8551 23.2294C51.2456 22.8388 51.8788 22.8388 52.2693 23.2294L59.1254 30.0855C59.5159 30.476 60.1491 30.476 60.5396 30.0855L61.3348 29.2903C61.7253 28.8998 61.7253 28.2666 61.3348 27.8761L52.2693 18.8106C51.8788 18.4201 51.2456 18.4201 50.8551 18.8106L41.7896 27.8761C41.3991 28.2666 41.3991 28.8998 41.7896 29.2903L42.5848 30.0855C42.9753 30.476 43.6085 30.476 43.999 30.0855L50.8551 23.2294Z" fill="white"/>
  <path d="M23.0398 48.0401C22.6493 47.6496 22.0161 47.6496 21.6256 48.0401L12.5601 57.1056C12.1696 57.4961 12.1696 58.1293 12.5601 58.5198L21.6256 67.5853C22.0161 67.9758 22.6493 67.9758 23.0398 67.5853L23.835 66.7901C24.2255 66.3996 24.2255 65.7664 23.835 65.3759L16.9789 58.5198C16.5884 58.1293 16.5884 57.4961 16.9789 57.1056L23.835 50.2495C24.2255 49.859 24.2255 49.2258 23.835 48.8353L23.0398 48.0401Z" fill="white"/>
  <path d="M41.3318 81.4587C40.9413 81.8492 40.3081 81.8492 39.9176 81.4587L33.0615 74.6026C32.671 74.2121 32.0378 74.2121 31.6473 74.6026L30.8521 75.3978C30.4616 75.7883 30.4616 76.4215 30.8521 76.812L39.9176 85.8775C40.3081 86.268 40.9413 86.268 41.3318 85.8775L50.3973 76.812C50.7878 76.4215 50.7878 75.7883 50.3973 75.3978L49.6021 74.6026C49.2116 74.2121 48.5784 74.2121 48.1879 74.6026L41.3318 81.4587Z" fill="white"/>
  <path d="M48.8848 38.6074L51.0941 36.398L62.0295 47.3334L59.8201 49.5427L48.8848 38.6074Z" fill="white"/>
  <path d="M44.1973 43.293L46.4066 41.0836L55.7799 50.4569L53.5705 52.6663L44.1973 43.293Z" fill="white"/>
  <path d="M39.5098 47.9805L41.7191 45.7711L51.0924 55.1444L48.883 57.3538L39.5098 47.9805Z" fill="white"/>
  <path d="M34.8223 52.667L37.0316 50.4576L46.4049 59.8309L44.1955 62.0403L34.8223 52.667Z" fill="white"/>
  <path d="M30.1348 57.3525L32.3441 55.1432L43.2795 66.0784L41.0701 68.2878L30.1348 57.3525Z" fill="white"/>
  <path d="M80.2249 57.9224L85.9374 52.2099V18.1036L80.3343 12.5004H77.3905C76.3671 10.8629 75.064 9.22076 73.5468 7.70357C68.8358 2.99263 62.1483 -0.333936 59.0296 2.78169C56.8827 4.92857 57.7968 8.77388 60.1155 12.5004H46.228L0.915527 57.813L40.6249 97.5224L57.9218 80.2255C58.9765 90.4427 67.6327 98.438 78.1249 98.438C89.3249 98.438 98.4374 89.3255 98.4374 78.1255C98.4374 67.6333 90.4421 58.977 80.2249 57.9224ZM61.239 4.99107C62.2671 3.95982 66.8218 5.40044 71.3358 9.91295C72.1702 10.7458 72.9265 11.6176 73.6015 12.5004H63.9218C61.2187 8.95357 60.4077 5.82232 61.239 4.99107ZM5.33428 57.813L47.5218 15.6255H62.4155C62.9062 16.202 63.4187 16.763 63.953 17.2973C66.053 19.3973 68.3312 21.0661 70.5187 22.1395C70.3968 22.5551 70.3124 22.9848 70.3124 23.438C70.3124 26.0223 72.4155 28.1255 74.9999 28.1255C77.5843 28.1255 79.6874 26.0223 79.6874 23.438C79.6874 20.8536 77.5843 18.7505 74.9999 18.7505C74.0233 18.7505 73.1187 19.052 72.3671 19.563C70.5577 18.7551 68.5687 17.363 66.7249 15.6255H79.0405L82.8124 19.3973V50.9161L75.7671 57.9614C66.4499 59.0458 59.0452 66.4505 57.9608 75.7677L40.6249 93.1036L5.33428 57.813ZM73.4374 23.438C73.4374 22.577 74.139 21.8755 74.9999 21.8755C75.8608 21.8755 76.5624 22.577 76.5624 23.438C76.5624 24.2989 75.8608 25.0005 74.9999 25.0005C74.139 25.0005 73.4374 24.2989 73.4374 23.438ZM78.1249 95.313C68.6483 95.313 60.9374 87.6021 60.9374 78.1255C60.9374 68.6489 68.6483 60.938 78.1249 60.938C87.6015 60.938 95.3124 68.6489 95.3124 78.1255C95.3124 87.6021 87.6015 95.313 78.1249 95.313Z" fill="white"/>
</svg>