<svg width="128" height="39" viewBox="0 0 128 39" fill="none" xmlns="http://www.w3.org/2000/svg">
<g id="Google Play - rus" clip-path="url(#clip0_16_1199)">
<g id="Group">
<path id="Vector" d="M123.259 0.313477H4.74074C2.1225 0.313477 0 2.43598 0 5.05422V33.4987C0 36.1169 2.1225 38.2394 4.74074 38.2394H123.259C125.877 38.2394 128 36.1169 128 33.4987V5.05422C128 2.43598 125.877 0.313477 123.259 0.313477Z" fill="#273142"/>
<path id="Vector_2" d="M123.259 1.072C124.315 1.072 125.328 1.49155 126.075 2.23836C126.822 2.98517 127.241 3.99807 127.241 5.05422V33.4987C127.241 34.5548 126.822 35.5677 126.075 36.3145C125.328 37.0613 124.315 37.4809 123.259 37.4809H4.74074C3.68459 37.4809 2.6717 37.0613 1.92488 36.3145C1.17807 35.5677 0.758519 34.5548 0.758519 33.4987V5.05422C0.758519 3.99807 1.17807 2.98517 1.92488 2.23836C2.6717 1.49155 3.68459 1.072 4.74074 1.072H123.259ZM123.259 0.313477H4.74074C3.48342 0.313477 2.27759 0.812946 1.38853 1.70201C0.499469 2.59107 0 3.79689 0 5.05422V33.4987C0 34.756 0.499469 35.9618 1.38853 36.8509C2.27759 37.7399 3.48342 38.2394 4.74074 38.2394H123.259C124.517 38.2394 125.722 37.7399 126.611 36.8509C127.501 35.9618 128 34.756 128 33.4987V5.05422C128 3.79689 127.501 2.59107 126.611 1.70201C125.722 0.812946 124.517 0.313477 123.259 0.313477Z" fill="#A6A6A6"/>
</g>
<g id="Group_2">
<path id="Vector_3" d="M64.6076 20.9345C63.8114 20.9382 63.0342 21.1777 62.3741 21.6228C61.7139 22.0678 61.2003 22.6985 60.8983 23.4351C60.5962 24.1718 60.5191 24.9814 60.6767 25.7618C60.8343 26.5422 61.2196 27.2585 61.7839 27.8201C62.3482 28.3818 63.0662 28.7637 63.8474 28.9176C64.6285 29.0716 65.4378 28.9907 66.173 28.6851C66.9082 28.3796 67.5364 27.8631 67.9784 27.2009C68.4203 26.5386 68.6562 25.7603 68.6562 24.9641C68.6639 24.4312 68.5643 23.9022 68.3634 23.4085C68.1624 22.9149 67.8642 22.4667 67.4864 22.0907C67.1087 21.7148 66.6591 21.4186 66.1645 21.22C65.67 21.0213 65.1405 20.9242 64.6076 20.9345ZM64.6076 27.4103C64.118 27.4446 63.6293 27.3307 63.2053 27.0836C62.7812 26.8364 62.4412 26.4674 62.2297 26.0245C62.0181 25.5817 61.9446 25.0853 62.0189 24.6002C62.0931 24.115 62.3115 23.6633 62.6459 23.3039C62.9802 22.9445 63.4149 22.694 63.8934 22.585C64.372 22.4759 64.8723 22.5134 65.3293 22.6924C65.7863 22.8715 66.1789 23.1839 66.456 23.589C66.7331 23.9941 66.882 24.4733 66.8832 24.9641C66.8984 25.2751 66.8513 25.586 66.7445 25.8785C66.6377 26.171 66.4734 26.4392 66.2613 26.6671C66.0492 26.8951 65.7936 27.0783 65.5096 27.206C65.2256 27.3336 64.9189 27.4031 64.6076 27.4103ZM55.7803 20.9345C54.9838 20.9363 54.2056 21.1743 53.5442 21.6182C52.8828 22.0621 52.3678 22.6921 52.0642 23.4286C51.7607 24.1651 51.6822 24.975 51.8388 25.756C51.9953 26.5371 52.3799 27.2542 52.9438 27.8168C53.5077 28.3794 54.2257 28.7623 55.0072 28.917C55.7886 29.0717 56.5983 28.9913 57.3341 28.6861C58.0698 28.3808 58.6986 27.8643 59.141 27.2019C59.5834 26.5394 59.8195 25.7607 59.8195 24.9641C59.8272 24.4312 59.7276 23.9022 59.5266 23.4085C59.3257 22.9149 59.0274 22.4667 58.6497 22.0907C58.2719 21.7148 57.8224 21.4186 57.3278 21.22C56.8332 21.0213 56.3037 20.9242 55.7709 20.9345H55.7803ZM55.7803 27.4103C55.2905 27.4465 54.801 27.3343 54.3758 27.0885C53.9505 26.8426 53.6092 26.4744 53.3961 26.0318C53.183 25.5892 53.1081 25.0927 53.1812 24.607C53.2542 24.1212 53.4718 23.6687 53.8056 23.3083C54.1395 22.948 54.574 22.6965 55.0528 22.5866C55.5316 22.4766 56.0323 22.5134 56.4899 22.692C56.9475 22.8707 57.3407 23.183 57.6183 23.5882C57.8959 23.9935 58.0451 24.4729 58.0464 24.9641C58.0617 25.2751 58.0145 25.586 57.9077 25.8785C57.8009 26.171 57.6366 26.4392 57.4246 26.6671C57.2125 26.8951 56.9569 27.0783 56.6729 27.206C56.3889 27.3336 56.0822 27.4031 55.7709 27.4103H55.7803ZM45.2654 22.1765V23.8832H49.3614C49.2972 24.6871 48.963 25.4456 48.4132 26.0355C48.0034 26.4529 47.5108 26.7799 46.967 26.9955C46.4233 27.211 45.8404 27.3103 45.2559 27.2871C44.0489 27.2871 42.8913 26.8076 42.0378 25.9541C41.1843 25.1006 40.7048 23.943 40.7048 22.736C40.7048 21.5289 41.1843 20.3713 42.0378 19.5178C42.8913 18.6643 44.0489 18.1848 45.2559 18.1848C46.4105 18.166 47.5255 18.6059 48.3563 19.408L49.5605 18.2038C48.9996 17.6359 48.3305 17.1863 47.5927 16.8818C46.8549 16.5772 46.0635 16.4238 45.2654 16.4308C44.4225 16.398 43.5816 16.5357 42.7932 16.8356C42.0048 17.1355 41.285 17.5916 40.6771 18.1763C40.0691 18.7611 39.5854 19.4626 39.2551 20.2387C38.9247 21.0149 38.7544 21.8497 38.7544 22.6933C38.7544 23.5368 38.9247 24.3717 39.2551 25.1479C39.5854 25.924 40.0691 26.6255 40.6771 27.2103C41.285 27.795 42.0048 28.251 42.7932 28.551C43.5816 28.8509 44.4225 28.9886 45.2654 28.9558C46.0769 28.9925 46.887 28.8549 47.6409 28.5523C48.3949 28.2498 49.0753 27.7892 49.6363 27.2017C50.6297 26.1103 51.1601 24.6756 51.1155 23.2005C51.1185 22.8412 51.0868 22.4824 51.0206 22.1291L45.2654 22.1765ZM88.226 23.504C87.9787 22.7765 87.5163 22.1413 86.9 21.6824C86.2837 21.2236 85.5426 20.9627 84.7747 20.9345C84.2561 20.9335 83.7427 21.0388 83.2664 21.2441C82.7901 21.4493 82.361 21.7501 82.0055 22.1277C81.6501 22.5054 81.3759 22.952 81.1998 23.4398C81.0238 23.9277 80.9497 24.4465 80.9821 24.9641C80.9706 25.494 81.066 26.0209 81.2626 26.5131C81.4593 27.0053 81.7531 27.4529 82.1266 27.829C82.5001 28.2051 82.9455 28.5021 83.4364 28.7022C83.9272 28.9024 84.4533 29.0015 84.9833 28.9937C85.6465 28.9973 86.3003 28.8363 86.8861 28.5253C87.4718 28.2142 87.9713 27.7627 88.3398 27.2112L86.9649 26.2631C86.7598 26.6051 86.4693 26.8881 86.1219 27.0842C85.7745 27.2803 85.3822 27.3829 84.9833 27.3819C84.5726 27.3975 84.1667 27.2893 83.8184 27.0711C83.47 26.853 83.1954 26.5351 83.0301 26.1588L88.4251 23.9306L88.226 23.504ZM82.7267 24.8503C82.7075 24.5571 82.747 24.2629 82.8429 23.9851C82.9388 23.7073 83.0891 23.4514 83.2851 23.2324C83.4812 23.0134 83.7189 22.8357 83.9845 22.7098C84.25 22.5839 84.538 22.5122 84.8316 22.4989C85.1375 22.4788 85.4425 22.5489 85.7088 22.7006C85.9751 22.8523 86.191 23.0789 86.3297 23.3522L82.7267 24.8503ZM78.3463 28.7567H80.1193V16.9048H78.3463V28.7567ZM75.4449 21.8352H75.3786C75.1113 21.5364 74.784 21.2975 74.418 21.1341C74.052 20.9707 73.6556 20.8865 73.2547 20.8871C72.2186 20.9373 71.2415 21.3843 70.5259 22.1354C69.8104 22.8865 69.4112 23.8841 69.4112 24.9214C69.4112 25.9588 69.8104 26.9564 70.5259 27.7075C71.2415 28.4586 72.2186 28.9056 73.2547 28.9558C73.6565 28.9626 74.0549 28.8812 74.4218 28.7174C74.7888 28.5535 75.1153 28.3113 75.3786 28.0077H75.4355V28.586C75.4355 30.1315 74.6106 30.9564 73.2832 30.9564C72.8411 30.946 72.412 30.8044 72.0507 30.5494C71.6894 30.2945 71.4121 29.9378 71.2541 29.5247L69.7086 30.1694C69.9996 30.8771 70.4953 31.4817 71.1321 31.9057C71.769 32.3298 72.5181 32.5539 73.2832 32.5493C75.3596 32.5493 77.0758 31.3262 77.0758 28.349V21.1715H75.4449V21.8352ZM73.4159 27.4103C72.8043 27.3564 72.2351 27.0754 71.8204 26.6226C71.4058 26.1698 71.1758 25.5781 71.1758 24.9641C71.1758 24.3501 71.4058 23.7584 71.8204 23.3056C72.2351 22.8528 72.8043 22.5718 73.4159 22.5179C73.7191 22.5334 74.0162 22.6095 74.2896 22.7417C74.563 22.8738 74.8071 23.0593 75.0077 23.2873C75.2083 23.5153 75.3612 23.7811 75.4575 24.069C75.5537 24.357 75.5914 24.6613 75.5682 24.9641C75.5941 25.2682 75.558 25.5743 75.4622 25.864C75.3663 26.1538 75.2127 26.421 75.0107 26.6497C74.8086 26.8784 74.5622 27.0637 74.2865 27.1944C74.0107 27.3251 73.7114 27.3986 73.4064 27.4103H73.4159ZM96.5318 16.9048H92.2935V28.7567H94.0666V24.2625H96.5412C97.0466 24.2988 97.5539 24.2306 98.0317 24.0622C98.5095 23.8937 98.9475 23.6287 99.3184 23.2835C99.6892 22.9383 99.985 22.5205 100.187 22.056C100.389 21.5915 100.494 21.0903 100.494 20.5837C100.494 20.077 100.389 19.5758 100.187 19.1113C99.985 18.6468 99.6892 18.229 99.3184 17.8838C98.9475 17.5386 98.5095 17.2736 98.0317 17.1052C97.5539 16.9367 97.0466 16.8685 96.5412 16.9048H96.5318ZM96.5318 22.5937H94.0571V18.5546H96.5697C97.1091 18.5546 97.6264 18.7689 98.0078 19.1503C98.3892 19.5317 98.6035 20.049 98.6035 20.5884C98.6035 21.1278 98.3892 21.6451 98.0078 22.0265C97.6264 22.4079 97.1091 22.6222 96.5697 22.6222L96.5318 22.5937ZM107.464 20.8871C106.818 20.8485 106.176 20.9993 105.615 21.3211C105.054 21.6428 104.599 22.1214 104.307 22.698L105.881 23.3522C106.036 23.0662 106.271 22.8315 106.557 22.6766C106.843 22.5218 107.168 22.4534 107.492 22.48C107.717 22.4537 107.945 22.4725 108.163 22.5353C108.381 22.598 108.584 22.7036 108.761 22.8457C108.937 22.9878 109.083 23.1636 109.191 23.3629C109.299 23.5622 109.366 23.781 109.389 24.0065V24.1297C108.819 23.8282 108.184 23.6719 107.54 23.6746C105.843 23.6746 104.126 24.6228 104.126 26.3389C104.143 26.7048 104.233 27.0637 104.391 27.3943C104.549 27.7248 104.771 28.0204 105.045 28.2635C105.319 28.5066 105.639 28.6922 105.986 28.8095C106.333 28.9268 106.7 28.9733 107.066 28.9463C107.512 28.9784 107.959 28.8897 108.359 28.6895C108.76 28.4893 109.099 28.185 109.341 27.8085H109.398V28.7567H111.105V24.1961C111.105 22.1197 109.531 20.9155 107.511 20.9155L107.464 20.8871ZM107.246 27.3819C106.667 27.3819 105.862 27.088 105.862 26.3768C105.862 25.4287 106.867 25.1158 107.758 25.1158C108.321 25.1019 108.878 25.2394 109.37 25.514C109.31 26.0274 109.068 26.502 108.686 26.8504C108.304 27.1989 107.81 27.3977 107.293 27.4103L107.246 27.3819ZM117.325 21.1715L115.296 26.3105H115.239L113.134 21.1715H111.238L114.395 28.3585L112.593 32.3502H114.442L119.297 21.1715H117.325ZM101.386 28.7567H103.159V16.9048H101.386V28.7567Z" fill="white"/>
<g id="Vector_4">
<path d="M39.9273 13.843H39.2257V11.9468H39.823C40.0954 11.6581 40.3011 11.3132 40.4256 10.9364C40.5501 10.5596 40.5904 10.1601 40.5436 9.76601V6.95001H44.3362V11.9373H44.9715V13.8336H44.2698V12.6389H39.9273V13.843ZM41.2452 9.79446C41.2895 10.5593 41.1011 11.3195 40.7048 11.9752H43.5492V7.65164H41.2452V9.79446ZM50.6414 11.8993C50.0871 12.4505 49.3372 12.76 48.5555 12.76C47.7737 12.76 47.0238 12.4505 46.4695 11.8993C45.9308 11.3291 45.6306 10.5742 45.6306 9.78972C45.6306 9.00518 45.9308 8.25037 46.4695 7.68009C46.7427 7.40488 47.0677 7.18646 47.4257 7.0374C47.7837 6.88835 48.1677 6.81161 48.5555 6.81161C48.9432 6.81161 49.3272 6.88835 49.6852 7.0374C50.0432 7.18646 50.3682 7.40488 50.6414 7.68009C51.1823 8.24929 51.4839 9.0045 51.4839 9.78972C51.4839 10.5749 51.1823 11.3301 50.6414 11.8993ZM47.01 11.4253C47.4205 11.834 47.9762 12.0635 48.5555 12.0635C49.1348 12.0635 49.6905 11.834 50.1009 11.4253C50.506 10.9787 50.7304 10.3974 50.7304 9.79446C50.7304 9.19154 50.506 8.6102 50.1009 8.16364C49.6905 7.75487 49.1348 7.52537 48.5555 7.52537C47.9762 7.52537 47.4205 7.75487 47.01 8.16364C46.6049 8.6102 46.3805 9.19154 46.3805 9.79446C46.3805 10.3974 46.6049 10.9787 47.01 11.4253ZM55.164 12.7622C54.7726 12.7699 54.3837 12.6984 54.0206 12.5519C53.6576 12.4054 53.3279 12.1869 53.0516 11.9097C52.7752 11.6324 52.5578 11.3021 52.4124 10.9385C52.2671 10.575 52.1968 10.1858 52.2058 9.79446C52.1968 9.40306 52.2671 9.01389 52.4124 8.65037C52.5578 8.28686 52.7752 7.95652 53.0516 7.67924C53.3279 7.40197 53.6576 7.1835 54.0206 7.037C54.3837 6.89049 54.7726 6.81897 55.164 6.82675C55.5608 6.81693 55.9546 6.89714 56.3159 7.06136C56.6771 7.22558 56.9965 7.46953 57.25 7.7749L56.738 8.26794C56.5507 8.03019 56.3092 7.84071 56.0338 7.71535C55.7583 7.58999 55.4568 7.53238 55.1546 7.54734C54.8635 7.53978 54.574 7.59134 54.3035 7.6989C54.0329 7.80646 53.787 7.96779 53.5806 8.17312C53.1695 8.62235 52.9415 9.20922 52.9415 9.81816C52.9415 10.4271 53.1695 11.014 53.5806 11.4632C53.787 11.6685 54.0329 11.8299 54.3035 11.9374C54.574 12.045 54.8635 12.0965 55.1546 12.089C55.4883 12.086 55.8172 12.0087 56.1173 11.8628C56.4174 11.7168 56.6813 11.5058 56.8897 11.2451L57.4017 11.7571C57.1436 12.0701 56.8199 12.3226 56.4535 12.4967C56.0488 12.68 55.6083 12.7707 55.164 12.7622ZM60.3789 12.6389H59.6488V7.65164H58.0559V6.95001H61.9623V7.65164H60.3789V12.6389ZM66.9875 6.95001L64.8352 11.7476C64.749 12.0314 64.5768 12.2815 64.3425 12.4632C64.1081 12.645 63.823 12.7494 63.5267 12.7622C63.3307 12.7597 63.1373 12.7178 62.9578 12.6389L63.1475 11.9657C63.2627 12.0328 63.3934 12.0688 63.5267 12.07C63.6661 12.0805 63.8053 12.0474 63.9249 11.9752C64.0392 11.8785 64.1272 11.7546 64.1809 11.6149L64.3895 11.1598L62.4932 6.95949H63.356L64.7593 10.2211L66.1246 6.95001H66.9875ZM67.8123 12.6389V6.95001H71.9273V12.6389H71.1972V7.65164H68.5424V12.6389H67.8123ZM73.2263 12.6389V6.95001H73.9563V9.38675H76.8008V6.95001H77.5309V12.6389H76.8008V10.0694H73.9563V12.6389H73.2263ZM83.4947 11.8993C82.9404 12.4505 82.1905 12.76 81.4088 12.76C80.6271 12.76 79.8772 12.4505 79.3229 11.8993C78.7841 11.3291 78.4839 10.5742 78.4839 9.78972C78.4839 9.00518 78.7841 8.25037 79.3229 7.68009C79.5961 7.40488 79.921 7.18646 80.279 7.0374C80.637 6.88835 81.021 6.81161 81.4088 6.81161C81.7966 6.81161 82.1805 6.88835 82.5385 7.0374C82.8965 7.18646 83.2215 7.40488 83.4947 7.68009C84.0356 8.24929 84.3372 9.0045 84.3372 9.78972C84.3372 10.5749 84.0356 11.3301 83.4947 11.8993ZM79.8633 11.4253C80.2738 11.834 80.8295 12.0635 81.4088 12.0635C81.9881 12.0635 82.5438 11.834 82.9543 11.4253C83.3594 10.9787 83.5837 10.3974 83.5837 9.79446C83.5837 9.19154 83.3594 8.6102 82.9543 8.16364C82.5438 7.75487 81.9881 7.52537 81.4088 7.52537C80.8295 7.52537 80.2738 7.75487 79.8633 8.16364C79.4582 8.6102 79.2338 9.19154 79.2338 9.79446C79.2338 10.3974 79.4582 10.9787 79.8633 11.4253ZM87.3158 12.6389V6.95001H89.3732C89.8004 6.94194 90.2145 7.09805 90.53 7.38616C90.6884 7.52365 90.8147 7.69429 90.8999 7.88598C90.9851 8.07768 91.0271 8.28576 91.023 8.49549C91.0275 8.74823 90.9547 8.99631 90.8144 9.2066C90.6752 9.41086 90.4814 9.57186 90.255 9.6712C90.53 9.76224 90.7712 9.93406 90.9472 10.1642C91.1295 10.3965 91.2265 10.6844 91.2221 10.9796C91.227 11.1982 91.1836 11.4152 91.0951 11.6151C91.0066 11.815 90.8752 11.993 90.7101 12.1364C90.38 12.4409 89.9456 12.6072 89.4965 12.601L87.3158 12.6389ZM88.0458 9.38675H89.3732C89.4972 9.39193 89.6208 9.37001 89.7354 9.32252C89.8501 9.27503 89.9529 9.20312 90.0369 9.11179C90.1209 9.03567 90.1886 8.94342 90.2362 8.84055C90.2837 8.73768 90.31 8.62629 90.3135 8.51302C90.3171 8.39976 90.2978 8.28695 90.2568 8.18131C90.2158 8.07567 90.1539 7.97937 90.0749 7.89816C89.9956 7.80853 89.8977 7.73744 89.7879 7.68992C89.6781 7.6424 89.5592 7.61962 89.4396 7.62319H88.0838L88.0458 9.38675ZM88.0458 11.9373H89.5155C89.6439 11.9416 89.7717 11.9175 89.8897 11.8667C90.0077 11.8158 90.113 11.7396 90.1981 11.6433C90.3653 11.47 90.4602 11.2394 90.4636 10.9986C90.4636 10.7471 90.3637 10.506 90.1859 10.3282C90.0081 10.1503 89.7669 10.0505 89.5155 10.0505H88.0743L88.0458 11.9373Z" fill="white"/>
<path fill-rule="evenodd" clip-rule="evenodd" d="M48.5555 6.90643C48.1802 6.90643 47.8086 6.98069 47.4621 7.12493C47.1161 7.26903 46.8019 7.48011 46.5376 7.74605C46.016 8.29864 45.7254 9.02979 45.7254 9.78972C45.7254 10.5495 46.0159 11.2806 46.5374 11.8332C47.0739 12.366 47.7993 12.6651 48.5555 12.6651C49.3117 12.6651 50.0371 12.366 50.5736 11.8331C51.0971 11.2816 51.3891 10.5502 51.3891 9.78972C51.3891 9.02916 51.0971 8.29764 50.5734 7.74615C50.3091 7.48017 49.9949 7.26905 49.6488 7.12493C49.3023 6.98069 48.9307 6.90643 48.5555 6.90643ZM47.3893 6.94987C47.7588 6.79601 48.1552 6.7168 48.5555 6.7168C48.9558 6.7168 49.3521 6.79601 49.7216 6.94987C50.0912 7.10373 50.4266 7.3292 50.7087 7.61329L50.7101 7.61476C51.2678 8.20158 51.5787 8.98019 51.5787 9.78972C51.5787 10.5992 51.2678 11.3778 50.7101 11.9647L50.7083 11.9666C50.1362 12.5355 49.3622 12.8548 48.5555 12.8548C47.7487 12.8548 46.9747 12.5354 46.4027 11.9666L46.4006 11.9645C45.8452 11.3766 45.5358 10.5985 45.5358 9.78972C45.5358 8.98097 45.8452 8.20286 46.4006 7.61497L46.4022 7.61327C46.6842 7.32918 47.0197 7.10373 47.3893 6.94987ZM81.4088 6.90643C81.0335 6.90643 80.6619 6.98069 80.3155 7.12493C79.9694 7.26902 79.6552 7.48009 79.391 7.746C78.8694 8.2986 78.5788 9.02977 78.5788 9.78972C78.5788 10.5495 78.8693 11.2806 79.3908 11.8332C79.9272 12.366 80.6526 12.6651 81.4088 12.6651C82.165 12.6651 82.8905 12.366 83.427 11.833C83.9505 11.2815 84.2424 10.5501 84.2424 9.78972C84.2424 9.02917 83.9504 8.29766 83.4267 7.74617C83.1625 7.48018 82.8482 7.26905 82.5021 7.12493C82.1556 6.98069 81.7841 6.90643 81.4088 6.90643ZM80.2426 6.94987C80.6121 6.79601 81.0085 6.7168 81.4088 6.7168C81.8091 6.7168 82.2054 6.79601 82.575 6.94987C82.9445 7.10373 83.28 7.3292 83.562 7.61329L83.5635 7.61476C84.1211 8.20159 84.432 8.98019 84.432 9.78972C84.432 10.5992 84.1211 11.3778 83.5634 11.9647L83.5616 11.9666C82.9895 12.5355 82.2155 12.8548 81.4088 12.8548C80.602 12.8548 79.8281 12.5354 79.256 11.9666L79.2539 11.9645C78.6985 11.3766 78.3891 10.5985 78.3891 9.78972C78.3891 8.98097 78.6986 8.20286 79.2539 7.61497L79.2556 7.61327C79.5376 7.32918 79.873 7.10373 80.2426 6.94987ZM56.2766 7.14767C55.9284 6.98938 55.5488 6.91207 55.1664 6.92154L55.1622 6.92164C54.7835 6.91412 54.4073 6.9832 54.0561 7.12492C53.7049 7.26664 53.3861 7.47797 53.1187 7.74618C52.8514 8.01439 52.641 8.33394 52.5005 8.68557C52.3599 9.03721 52.2919 9.41367 52.3006 9.79227L52.3007 9.79665C52.292 10.1752 52.3599 10.5517 52.5005 10.9033C52.641 11.255 52.8514 11.5745 53.1187 11.8427C53.3861 12.1109 53.7049 12.3223 54.0561 12.464C54.4073 12.6057 54.7835 12.6749 55.1622 12.6674L55.164 12.7622L55.1659 12.6674C55.5957 12.6756 56.0219 12.5879 56.4136 12.4107C56.7412 12.2549 57.0335 12.0342 57.2727 11.7623L56.8959 11.3854C56.6904 11.6199 56.4398 11.8113 56.1588 11.948C55.8462 12.1 55.5037 12.1806 55.1562 12.1838C54.8526 12.1916 54.5506 12.1377 54.2684 12.0255C53.986 11.9132 53.7292 11.7448 53.5138 11.5304L53.5106 11.5273C53.0835 11.0606 52.8467 10.4508 52.8467 9.81816C52.8467 9.18553 53.0836 8.57582 53.5107 8.10911L53.5137 8.10583C53.7292 7.89145 53.986 7.72309 54.2684 7.61079C54.5498 7.49893 54.8508 7.44509 55.1535 7.45247C55.4696 7.43739 55.7849 7.49792 56.0731 7.62905C56.3305 7.74623 56.5597 7.91676 56.7457 8.1289L57.1197 7.76875C56.8852 7.50548 56.5981 7.29382 56.2766 7.14767ZM55.1641 12.857C54.7605 12.8648 54.3595 12.7909 53.9851 12.6398C53.6102 12.4885 53.2698 12.2629 52.9844 11.9766C52.699 11.6903 52.4745 11.3491 52.3244 10.9737C52.1745 10.599 52.102 10.1979 52.111 9.79446C52.102 9.39101 52.1745 8.98989 52.3244 8.61517C52.4745 8.23978 52.699 7.89864 52.9844 7.61231C53.2698 7.32597 53.6102 7.10037 53.9851 6.94907C54.3594 6.79804 54.7603 6.72418 55.1638 6.73191C55.5742 6.72207 55.9814 6.80519 56.3551 6.97504C56.7294 7.14519 57.0603 7.39795 57.3229 7.71434L57.3792 7.78211L56.7283 8.40888L56.6635 8.32661C56.4856 8.10074 56.2562 7.92074 55.9945 7.80165C55.7328 7.68256 55.4464 7.62783 55.1593 7.64204L55.1521 7.6424C54.8739 7.63517 54.5971 7.68418 54.3385 7.787C54.0806 7.88955 53.8461 8.04323 53.6491 8.23877C53.2549 8.67031 53.0364 9.23366 53.0364 9.81816C53.0364 10.4027 53.2549 10.966 53.6491 11.3975C53.8461 11.5931 54.0806 11.7468 54.3385 11.8493C54.5971 11.9521 54.8739 12.0014 55.1521 11.9942L55.1537 11.9942C55.4734 11.9913 55.7884 11.9173 56.0758 11.7775C56.3633 11.6377 56.616 11.4356 56.8156 11.1859L56.8818 11.1031L57.5296 11.751L57.4748 11.8174C57.2079 12.1412 56.8732 12.4023 56.4942 12.5823L56.4927 12.5831C56.0756 12.7719 55.6218 12.8655 55.1641 12.857ZM90.466 7.45617C90.1684 7.18443 89.778 7.0372 89.375 7.04481L89.3732 7.04483H87.4106V12.5424L89.4948 12.5062L89.4978 12.5062C89.9226 12.5121 90.3335 12.3548 90.6458 12.0667L90.6479 12.0648C90.8025 11.9305 90.9256 11.7639 91.0084 11.5767C91.0913 11.3895 91.1319 11.1864 91.1273 10.9817L91.1273 10.9782C91.1314 10.7047 91.0415 10.438 90.8726 10.2228L90.8718 10.2218C90.7075 10.0068 90.4822 9.84626 90.2252 9.76121L89.9908 9.68361L90.2169 9.58438C90.4268 9.49226 90.6066 9.34301 90.7358 9.15366C90.8652 8.95949 90.9323 8.73048 90.9282 8.49716V8.49363C90.9321 8.29779 90.8928 8.10349 90.8133 7.92449C90.7337 7.74549 90.6158 7.58616 90.4678 7.45777L90.466 7.45617ZM90.5931 7.31537C90.26 7.01159 89.8231 6.84691 89.3724 6.8552H87.2209V12.7354L89.4952 12.6958L89.4967 12.6958C89.9691 12.702 90.4259 12.5271 90.7734 12.207C90.9484 12.0547 91.0879 11.8657 91.1818 11.6535C91.2757 11.4414 91.3218 11.2112 91.317 10.9793L91.3169 10.9811L91.2221 10.9796L91.3169 10.9775L91.317 10.9793C91.3213 10.6631 91.2172 10.355 91.0221 10.1062C90.8771 9.91658 90.6905 9.7642 90.4779 9.66002C90.6416 9.557 90.783 9.42104 90.8928 9.26L90.8933 9.25922C91.044 9.03336 91.1223 8.76699 91.1178 8.49556L91.1178 8.49735L91.023 8.49549L91.1178 8.49382L91.1178 8.49556C91.122 8.27254 91.0771 8.05132 90.9865 7.84747C90.8959 7.64347 90.7616 7.46183 90.5931 7.31537ZM40.4488 6.8552H44.431V11.8425H45.0663V13.9284H44.175V12.7337H40.0221V13.9379H39.1309V11.8519H39.7817C40.0308 11.5796 40.2196 11.2575 40.3356 10.9067C40.4557 10.5431 40.4946 10.1575 40.4494 9.77719L40.4488 9.77162V6.8552ZM40.6384 7.04483V9.76045C40.6858 10.1665 40.6439 10.578 40.5156 10.9662C40.3867 11.3562 40.1739 11.7131 39.892 12.0118L39.8639 12.0416H39.3205V13.7482H39.8325V12.5441H44.3646V13.7388H44.8766V12.0321H44.2414V7.04483H40.6384ZM57.9611 6.8552H62.0571V7.74645H60.4737V12.7337H59.554V7.74645H57.9611V6.8552ZM58.1507 7.04483V7.55683H59.7436V12.5441H60.284V7.55683H61.8675V7.04483H58.1507ZM66.0615 6.8552H67.1339L64.9241 11.781C64.8317 12.0812 64.6489 12.3456 64.4006 12.5381C64.1506 12.7319 63.8467 12.8433 63.5308 12.8569L63.5255 12.8571C63.3168 12.8545 63.1108 12.8097 62.9197 12.7257L62.8442 12.6925L63.0894 11.8222L63.1952 11.8838C63.2962 11.9426 63.4107 11.9741 63.5276 11.9752L63.5339 11.9753C63.6511 11.9841 63.7681 11.9572 63.8695 11.8978C63.9688 11.8122 64.0453 11.7033 64.0924 11.5809L64.0946 11.5753L64.2854 11.1595L62.3464 6.86468H63.4185L64.758 9.97814L66.0615 6.8552ZM66.1878 7.04483L64.7606 10.4641L63.2936 7.05431H62.6401L64.4937 11.1601L64.2683 11.6518C64.2088 11.8052 64.1118 11.9412 63.9862 12.0476L63.9804 12.0525L63.9739 12.0564C63.8383 12.1382 63.6807 12.176 63.5227 12.1648C63.4144 12.1634 63.3076 12.1416 63.2079 12.1009L63.0721 12.5829C63.2171 12.6364 63.3703 12.665 63.5253 12.6673C63.801 12.6549 64.0662 12.5574 64.2844 12.3883C64.5032 12.2186 64.664 11.9851 64.7444 11.7201L64.7462 11.7143L66.841 7.04483H66.1878ZM67.7175 6.8552H72.0221V12.7337H71.1024V7.74645H68.6372V12.7337H67.7175V6.8552ZM67.9072 7.04483V12.5441H68.4476V7.55683H71.292V12.5441H71.8325V7.04483H67.9072ZM73.1315 6.8552H74.0512V9.29194H76.706V6.8552H77.6257V12.7337H76.706V10.1642H74.0512V12.7337H73.1315V6.8552ZM73.3211 7.04483V12.5441H73.8615V9.9746H76.8956V12.5441H77.436V7.04483H76.8956V9.48157H73.8615V7.04483H73.3211ZM46.9431 8.09646C47.3713 7.66999 47.9511 7.43056 48.5555 7.43056C49.1598 7.43056 49.7396 7.66999 50.1678 8.09646L50.1713 8.09986C50.5922 8.56386 50.8252 9.16799 50.8252 9.79446C50.8252 10.4209 50.5921 11.025 50.1712 11.489L50.1679 11.4925C49.7397 11.919 49.1598 12.1584 48.5555 12.1584C47.9511 12.1584 47.3713 11.9189 46.9431 11.4925L47.01 11.4253L46.9397 11.489C46.5188 11.025 46.2857 10.4209 46.2857 9.79446C46.2857 9.16799 46.5188 8.56394 46.9397 8.09994L46.9431 8.09646ZM47.0786 11.3598C47.4711 11.7498 48.002 11.9687 48.5555 11.9687C49.1089 11.9687 49.6398 11.7498 50.0323 11.3598C50.4206 10.9309 50.6356 10.373 50.6356 9.79446C50.6356 9.21589 50.4206 8.65801 50.0323 8.22913C49.6398 7.83912 49.1089 7.62019 48.5555 7.62019C48.002 7.62019 47.4711 7.83912 47.0786 8.22913C46.6903 8.65801 46.4753 9.21589 46.4753 9.79446C46.4753 10.373 46.6903 10.9309 47.0786 11.3598ZM79.7964 8.09646C80.2247 7.66999 80.8044 7.43056 81.4088 7.43056C82.0132 7.43056 82.5929 7.66999 83.0212 8.09646L83.0246 8.09986C83.4455 8.56386 83.6786 9.16799 83.6786 9.79446C83.6786 10.4209 83.4454 11.025 83.0245 11.489L83.0213 11.4925C82.593 11.919 82.0132 12.1584 81.4088 12.1584C80.8044 12.1584 80.2247 11.9189 79.7964 11.4925L79.8633 11.4253L79.7931 11.489C79.3722 11.025 79.139 10.4209 79.139 9.79446C79.139 9.16799 79.3722 8.56394 79.7931 8.09994L79.7964 8.09646ZM79.9319 11.3598C80.3245 11.7498 80.8554 11.9687 81.4088 11.9687C81.9622 11.9687 82.4931 11.7498 82.8857 11.3598C83.2739 10.9309 83.4889 10.373 83.4889 9.79446C83.4889 9.21589 83.2739 8.658 82.8857 8.22912C82.4931 7.83911 81.9622 7.62019 81.4088 7.62019C80.8554 7.62019 80.3245 7.83911 79.9319 8.22912C79.5437 8.658 79.3286 9.21589 79.3286 9.79446C79.3286 10.373 79.5437 10.9309 79.9319 11.3598ZM89.4382 7.52838C89.5712 7.52462 89.7034 7.55006 89.8255 7.60291C89.9474 7.65566 90.0562 7.73444 90.1444 7.83371C90.2316 7.9237 90.2998 8.03022 90.3451 8.147C90.3908 8.2645 90.4122 8.39 90.4083 8.51599C90.4044 8.64197 90.3751 8.76588 90.3222 8.88031C90.27 8.99344 90.1957 9.09502 90.1038 9.17914C90.011 9.27911 89.8978 9.3579 89.7717 9.41011C89.645 9.46262 89.5084 9.48699 89.3713 9.48157H87.949L87.991 7.52838H89.4382ZM89.7502 7.77693C89.6532 7.73494 89.5481 7.71481 89.4424 7.71797L89.4396 7.71801H88.1766L88.1427 9.29194H89.3772C89.4874 9.29654 89.5973 9.27714 89.6991 9.23492C89.801 9.19271 89.8925 9.12879 89.9671 9.04761L89.9701 9.04444L89.9733 9.04155C90.0478 8.97398 90.1079 8.8921 90.1501 8.80079C90.1923 8.70948 90.2156 8.6106 90.2188 8.51006C90.2219 8.40953 90.2048 8.30939 90.1684 8.21562C90.132 8.12185 90.0771 8.03637 90.0069 7.96428L90.0037 7.96103C89.9337 7.88183 89.8472 7.81893 89.7502 7.77693ZM41.1504 7.55683H43.644V12.07H40.5367L40.6236 11.9262C41.01 11.2869 41.1937 10.5456 41.1506 9.79993L41.1503 9.79446L41.1504 7.55683ZM41.34 7.74645V9.79173C41.3816 10.5194 41.2177 11.243 40.8687 11.8804H43.4544V7.74645H41.34ZM87.9809 9.95564H89.5155C89.7921 9.95564 90.0573 10.0655 90.2529 10.2611C90.4485 10.4567 90.5584 10.722 90.5584 10.9986L90.5584 10.9999C90.5547 11.2642 90.4508 11.5172 90.2677 11.7077C90.1736 11.8137 90.0574 11.8977 89.9272 11.9537C89.7968 12.0099 89.6557 12.0366 89.5139 12.0321H87.9496L87.9809 9.95564ZM88.1677 10.1453L88.1421 11.8425H89.5186C89.6331 11.8463 89.747 11.8249 89.8522 11.7796C89.9574 11.7343 90.0512 11.6663 90.1271 11.5805L90.1298 11.5775C90.2801 11.4216 90.3656 11.2144 90.3688 10.9979C90.3686 10.7718 90.2787 10.5551 90.1189 10.3952C89.9588 10.2352 89.7418 10.1453 89.5155 10.1453H88.1677Z" fill="white"/>
</g>
<g id="Group_3">
<path id="Vector_5" d="M9.89999 7.46115C9.59096 7.83198 9.43498 8.3067 9.46385 8.78855V29.7616C9.43498 30.2435 9.59096 30.7182 9.89999 31.089L9.96636 31.1554L21.7139 19.4173V19.1423L9.96636 7.39478L9.89999 7.46115Z" fill="url(#paint0_linear_16_1199)"/>
<path id="Vector_6" d="M25.6003 23.3329L21.7129 19.4171V19.1421L25.6003 15.2168L25.6856 15.2642L30.341 17.9095C31.6684 18.6586 31.6684 19.8912 30.341 20.6497L25.7046 23.2855L25.6003 23.3329Z" fill="url(#paint1_linear_16_1199)"/>
<path id="Vector_7" d="M25.7145 23.2763L21.7133 19.2751L9.89941 31.0891C10.17 31.3269 10.5151 31.4628 10.8752 31.4732C11.2353 31.4836 11.5877 31.3678 11.8716 31.146L25.724 23.2763" fill="url(#paint2_linear_16_1199)"/>
<path id="Vector_8" d="M25.7147 15.2736L11.8623 7.40401C11.5785 7.18216 11.226 7.06643 10.866 7.07681C10.5059 7.0872 10.1607 7.22306 9.89014 7.4609L21.7135 19.2748L25.7147 15.2736Z" fill="url(#paint3_linear_16_1199)"/>
<path id="Vector_9" opacity="0.2" d="M25.6007 23.1907L11.8621 31.0129C11.5883 31.2176 11.2557 31.3282 10.9139 31.3282C10.5721 31.3282 10.2395 31.2176 9.96578 31.0129L9.89941 31.0793L9.96578 31.1456C10.2389 31.3518 10.5718 31.4633 10.9139 31.4633C11.2561 31.4633 11.589 31.3518 11.8621 31.1456L25.7145 23.276L25.6007 23.1907Z" fill="#273142"/>
<path id="Vector_10" opacity="0.12" d="M9.89999 30.9563C9.59096 30.5855 9.43498 30.1108 9.46385 29.6289V29.7711C9.43498 30.253 9.59096 30.7277 9.89999 31.0986L9.96636 31.0322L9.89999 30.9563ZM30.3421 20.5077L25.6013 23.191L25.6867 23.2763L30.3421 20.6405C30.6062 20.5164 30.833 20.3248 30.9994 20.0851C31.1659 19.8454 31.2662 19.566 31.2902 19.2751C31.2369 19.5394 31.1237 19.7879 30.9593 20.0016C30.795 20.2153 30.5838 20.3884 30.3421 20.5077Z" fill="#273142"/>
<path id="Vector_11" opacity="0.25" d="M11.8614 7.53775L30.3408 18.0432C30.5826 18.1625 30.7937 18.3357 30.9581 18.5494C31.1225 18.7631 31.2357 19.0116 31.289 19.2758C31.265 18.985 31.1647 18.7056 30.9982 18.4659C30.8317 18.2261 30.605 18.0346 30.3408 17.9105L11.8614 7.405C10.534 6.65597 9.45312 7.28175 9.45312 8.79878V8.94101C9.48157 7.41449 10.5435 6.78871 11.8614 7.53775Z" fill="white"/>
</g>
</g>
</g>
<defs>
<linearGradient id="paint0_linear_16_1199" x1="20.671" y1="8.57048" x2="4.76103" y2="24.4804" gradientUnits="userSpaceOnUse">
<stop stop-color="#00A0FF"/>
<stop offset="0.01" stop-color="#00A1FF"/>
<stop offset="0.26" stop-color="#00BEFF"/>
<stop offset="0.51" stop-color="#00D2FF"/>
<stop offset="0.76" stop-color="#00DFFF"/>
<stop offset="1" stop-color="#00E3FF"/>
</linearGradient>
<linearGradient id="paint1_linear_16_1199" x1="32.0761" y1="19.2749" x2="9.14045" y2="19.2749" gradientUnits="userSpaceOnUse">
<stop stop-color="#FFE000"/>
<stop offset="0.41" stop-color="#FFBD00"/>
<stop offset="0.78" stop-color="#FFA500"/>
<stop offset="1" stop-color="#FF9C00"/>
</linearGradient>
<linearGradient id="paint2_linear_16_1199" x1="23.5433" y1="21.4559" x2="1.96341" y2="43.0263" gradientUnits="userSpaceOnUse">
<stop stop-color="#FF3A44"/>
<stop offset="1" stop-color="#C31162"/>
</linearGradient>
<linearGradient id="paint3_linear_16_1199" x1="6.92243" y1="0.482534" x2="16.5556" y2="10.1157" gradientUnits="userSpaceOnUse">
<stop stop-color="#32A071"/>
<stop offset="0.07" stop-color="#2DA771"/>
<stop offset="0.48" stop-color="#15CF74"/>
<stop offset="0.8" stop-color="#06E775"/>
<stop offset="1" stop-color="#00F076"/>
</linearGradient>
<clipPath id="clip0_16_1199">
<rect width="128" height="37.9259" fill="white" transform="translate(0 0.313477)"/>
</clipPath>
</defs>
</svg>
