<svg width="22" height="22" viewBox="0 0 22 22" fill="none" xmlns="http://www.w3.org/2000/svg">
<g id="search">
<path id="Vector (Stroke)" fill-rule="evenodd" clip-rule="evenodd" d="M10.0835 3.66659C6.53967 3.66659 3.66683 6.53942 3.66683 10.0833C3.66683 13.6271 6.53967 16.4999 10.0835 16.4999C13.6273 16.4999 16.5002 13.6271 16.5002 10.0833C16.5002 6.53942 13.6273 3.66659 10.0835 3.66659ZM1.8335 10.0833C1.8335 5.5269 5.52715 1.83325 10.0835 1.83325C14.6398 1.83325 18.3335 5.5269 18.3335 10.0833C18.3335 14.6396 14.6398 18.3333 10.0835 18.3333C5.52715 18.3333 1.8335 14.6396 1.8335 10.0833Z" fill="white"/>
<path id="Vector (Stroke)_2" fill-rule="evenodd" clip-rule="evenodd" d="M14.6142 14.6144C14.9722 14.2565 15.5526 14.2565 15.9106 14.6144L19.8981 18.6019C20.256 18.9599 20.256 19.5403 19.8981 19.8983C19.5401 20.2563 18.9597 20.2563 18.6017 19.8983L14.6142 15.9108C14.2562 15.5528 14.2562 14.9724 14.6142 14.6144Z" fill="white"/>
</g>
</svg>
