<svg width="25" height="24" viewBox="0 0 25 24" fill="none" xmlns="http://www.w3.org/2000/svg">
<g id="shopping-cart">
<g id="Group 33040">
<path id="Vector (Stroke)" fill-rule="evenodd" clip-rule="evenodd" d="M7.9165 21.2501C7.9165 20.2376 8.73731 19.4167 9.74984 19.4167C10.7624 19.4167 11.5832 20.2376 11.5832 21.2501C11.5832 22.2626 10.7624 23.0834 9.74984 23.0834C8.73731 23.0834 7.9165 22.2626 7.9165 21.2501Z" fill="#273142"/>
<path id="Vector (Stroke)_2" fill-rule="evenodd" clip-rule="evenodd" d="M18 21.2501C18 20.2376 18.8208 19.4167 19.8333 19.4167C20.8459 19.4167 21.6667 20.2376 21.6667 21.2501C21.6667 22.2626 20.8459 23.0834 19.8333 23.0834C18.8208 23.0834 18 22.2626 18 21.2501Z" fill="#273142"/>
<path id="Vector (Stroke)_3" fill-rule="evenodd" clip-rule="evenodd" d="M1.5 2.91667C1.5 2.41041 1.91041 2 2.41667 2H6.08333C6.52024 2 6.89643 2.30835 6.98217 2.73676L7.75206 6.58333H22.5833C22.8565 6.58333 23.1155 6.70518 23.2896 6.91567C23.4638 7.12616 23.5349 7.40336 23.4838 7.67171L22.0158 15.3694C21.8901 16.0025 21.5456 16.5711 21.0429 16.9758C20.5426 17.3785 19.9173 17.5934 19.2754 17.5833H10.3813C9.73934 17.5934 9.11402 17.3785 8.61377 16.9758C8.11122 16.5713 7.76691 16.0029 7.64105 15.3702C7.641 15.3699 7.6411 15.3704 7.64105 15.3702L6.10972 7.71927C6.10351 7.69396 6.09835 7.66824 6.09429 7.64215L5.33196 3.83333H2.41667C1.91041 3.83333 1.5 3.42293 1.5 2.91667ZM8.119 8.41666L9.4391 15.0122C9.48101 15.2233 9.59581 15.4128 9.76339 15.5477C9.93098 15.6826 10.1407 15.7543 10.3558 15.7502L10.3733 15.75H19.2833L19.3009 15.7502C19.516 15.7543 19.7257 15.6826 19.8933 15.5477C20.0601 15.4134 20.1746 15.225 20.217 15.0152L21.4753 8.41666H8.119Z" fill="#273142"/>
</g>
</g>
</svg>
