<svg width="16" height="15" viewBox="0 0 16 15" fill="none" xmlns="http://www.w3.org/2000/svg">
<g id="visibility 1" clip-path="url(#clip0_1_993)">
<g id="Group">
<g id="Group_2">
<g id="Group_3">
<path id="Vector" d="M8.10382 5.59082C7.01432 5.59082 6.12891 6.44672 6.12891 7.4999C6.12891 8.55309 7.01432 9.40899 8.10382 9.40899C9.19333 9.40899 10.0787 8.55309 10.0787 7.4999C10.0787 6.44672 9.1933 5.59082 8.10382 5.59082Z" fill="white"/>
<path id="Vector_2" d="M8.1037 2.72705C4.81215 2.72705 2.00119 4.70612 0.862305 7.49978C2.00119 10.2934 4.81215 12.2725 8.1037 12.2725C11.3985 12.2725 14.2062 10.2934 15.3451 7.49978C14.2062 4.70612 11.3985 2.72705 8.1037 2.72705ZM8.1037 10.6816C6.28677 10.6816 4.81215 9.25612 4.81215 7.49975C4.81215 5.74339 6.28677 4.31795 8.1037 4.31795C9.92063 4.31795 11.3952 5.74342 11.3952 7.49978C11.3952 9.25615 9.92063 10.6816 8.1037 10.6816Z" fill="white"/>
</g>
</g>
</g>
</g>
<defs>
<clipPath id="clip0_1_993">
<rect width="14.4828" height="14" fill="white" transform="translate(0.862305 0.5)"/>
</clipPath>
</defs>
</svg>
